<?xml version="1.0" encoding="UTF-8" standalone="no"?>
<svg
   xmlns:dc="http://purl.org/dc/elements/1.1/"
   xmlns:cc="http://creativecommons.org/ns#"
   xmlns:rdf="http://www.w3.org/1999/02/22-rdf-syntax-ns#"
   xmlns:svg="http://www.w3.org/2000/svg"
   xmlns="http://www.w3.org/2000/svg"
   xmlns:sodipodi="http://sodipodi.sourceforge.net/DTD/sodipodi-0.dtd"
   xmlns:inkscape="http://www.inkscape.org/namespaces/inkscape"
   width="88.174187mm"
   height="24.251287mm"
   viewBox="0 0 88.174184 24.251288"
   version="1.1"
   id="svg944"
   inkscape:version="1.0.1 (3bc2e813f5, 2020-09-07)"
   sodipodi:docname="Logo.svg">
  <defs
     id="defs938" />
  <sodipodi:namedview
     id="base"
     pagecolor="#ffffff"
     bordercolor="#666666"
     borderopacity="1.0"
     inkscape:pageopacity="0.0"
     inkscape:pageshadow="2"
     inkscape:zoom="1.4"
     inkscape:cx="219.65205"
     inkscape:cy="-135.3426"
     inkscape:document-units="mm"
     inkscape:current-layer="layer1"
     inkscape:document-rotation="0"
     showgrid="false"
     inkscape:window-width="1920"
     inkscape:window-height="1027"
     inkscape:window-x="-8"
     inkscape:window-y="-8"
     inkscape:window-maximized="1" />
  <metadata
     id="metadata941">
    <rdf:RDF>
      <cc:Work
         rdf:about="">
        <dc:format>image/svg+xml</dc:format>
        <dc:type
           rdf:resource="http://purl.org/dc/dcmitype/StillImage" />
        <dc:title></dc:title>
      </cc:Work>
    </rdf:RDF>
  </metadata>
  <g
     inkscape:label="Layer 1"
     inkscape:groupmode="layer"
     id="layer1"
     transform="translate(-19.691249,-36.928774)">
    <g
       id="g904"
       transform="translate(8.3760697,21.166667)"
       style="fill:#ffffff">
      <path
         id="path883"
         style="fill:#ffffff;stroke-width:0.264583"
         d="m 25.670504,16.030708 c -0.380532,0.0021 -0.777343,0.0066 -1.192175,0.01344 l -5.027084,0.08268 -0.05839,9.982853 6.059061,5.531962 c -0.0077,-1.106559 -0.0048,-2.495855 0.01344,-4.011642 l 0.07131,-5.946923 1.831414,-0.07906 c 0.250182,-0.01083 0.486759,-0.01545 0.710552,-0.01292 1.566534,0.01773 2.502246,0.367823 3.024621,1.113625 0.479118,0.68403 0.564182,9.396072 0.100251,10.262939 -0.157229,0.293791 -0.688898,0.702503 -1.181838,0.908473 -0.61921,0.258742 -1.822453,0.380442 -2.833421,0.368451 h -7.842932 l -0.03204,5.562452 h 5.371248 c 6.076741,0 7.739423,-0.280464 9.754444,-1.645893 1.373079,-0.93044 2.481795,-2.46289 2.896463,-4.002858 0.16519,-0.61351 0.241604,-3.368892 0.191204,-6.881233 -0.09355,-6.519984 -0.212881,-7.019737 -2.110984,-8.806698 -2.060173,-1.939542 -4.03716,-2.470666 -9.745141,-2.439644 z" />
      <path
         style="fill:#ffffff;stroke-width:0.264583"
         d="m 79.764911,39.476323 c -0.0698,-0.1819 -0.0958,-5.509947 -0.0579,-11.840098 l 0.069,-11.509375 2.97656,-0.07481 2.97656,-0.07481 v 4.274395 c 0,3.622715 0.0562,4.227779 0.36842,3.968637 0.20263,-0.168166 1.66115,-2.085728 3.24115,-4.261246 l 2.87273,-3.955488 3.63802,-0.0045 c 2.00091,-0.0025 3.63802,0.08509 3.63802,0.194573 0,0.165893 -3.86042,4.946424 -8.00365,9.911289 -0.5457,0.65392 -0.99219,1.277307 -0.99219,1.385305 0,0.107997 0.79756,1.226828 1.77234,2.486291 5.92927,7.660877 7.2235,9.379607 7.2235,9.592807 0,0.13076 -1.65126,0.23775 -3.66947,0.23775 h -3.66946 l -2.97137,-4.10104 c -1.63426,-2.255567 -3.07862,-4.101041 -3.2097,-4.101041 -0.13114,0 -0.23834,1.844564 -0.23834,4.101041 v 4.10104 h -2.91871 c -2.09092,0 -2.95471,-0.0938 -3.0456,-0.33073 z"
         id="path889" />
      <path
         style="fill:#ffffff;stroke-width:0.264583"
         d="m 40.813481,27.966954 0.0689,-11.840104 8.26823,-0.06991 8.26823,-0.06992 v 2.776301 2.776301 l -5.22552,0.07174 -5.22552,0.07174 -0.0782,1.785937 -0.0782,1.785938 h 4.90688 4.90688 v 2.639864 2.639865 l -4.82865,0.07211 -4.82864,0.07211 -0.0806,1.562957 c -0.0552,1.071283 0.028,1.631823 0.26459,1.781883 0.18984,0.12041 2.5776,0.22075 5.30611,0.22298 l 4.96094,0.004 v 2.778127 2.77812 h -8.3371 -8.3371 z"
         id="path887" />
      <path
         style="fill:#ffffff;stroke-width:0.264583"
         d="m 64.902821,39.705923 c -0.61322,-0.20162 -1.62525,-0.66828 -2.24896,-1.03704 -1.45381,-0.85954 -3.30747,-2.75882 -2.97326,-3.04645 0.13846,-0.11916 0.98229,-0.89839 1.87517,-1.731627 l 1.62342,-1.514974 1.16754,0.787964 c 2.86067,1.930637 6.83041,1.632357 6.83041,-0.513239 0,-0.861042 -1.21914,-1.581505 -3.7271,-2.202566 -4.03813,-0.999984 -5.80981,-2.133334 -6.96795,-4.457425 -1.22001,-2.448247 -0.80835,-5.813616 0.93478,-7.641849 1.88619,-1.978274 4.08348,-2.720204 7.603,-2.567199 2.14704,0.09334 2.79892,0.232558 4.08985,0.873453 0.84463,0.419329 1.95083,1.221926 2.45823,1.783548 l 0.92253,1.021132 -1.86692,1.442454 c -1.0268,0.793349 -1.96572,1.442453 -2.08649,1.442453 -0.12077,0 -0.418,-0.219254 -0.66052,-0.487231 -0.24252,-0.267977 -1.07279,-0.702003 -1.84504,-0.964501 -2.3683,-0.80501 -4.23423,-0.05244 -4.23423,1.707757 0,1.132555 0.91523,1.736361 3.66007,2.414673 4.1032,1.013993 5.95016,2.128161 7.02704,4.239023 0.71877,1.408896 0.72074,4.876127 0.004,6.281884 -0.69714,1.36651 -2.43313,2.87455 -4.21742,3.66365 -1.85195,0.81902 -5.62723,1.07836 -7.36773,0.50611 z"
         id="path875" />
    </g>
  </g>
</svg>
